<?xml version="1.0" encoding="UTF-8" standalone="no"?>
<!-- Created with Inkscape (http://www.inkscape.org/) -->

<svg
   xmlns:dc="http://purl.org/dc/elements/1.1/"
   xmlns:cc="http://creativecommons.org/ns#"
   xmlns:rdf="http://www.w3.org/1999/02/22-rdf-syntax-ns#"
   xmlns:svg="http://www.w3.org/2000/svg"
   xmlns="http://www.w3.org/2000/svg"
   xmlns:sodipodi="http://sodipodi.sourceforge.net/DTD/sodipodi-0.dtd"
   xmlns:inkscape="http://www.inkscape.org/namespaces/inkscape"
   width="210mm"
   height="297mm"
   viewBox="0 0 210 297"
   version="1.1"
   id="svg4746"
   inkscape:version="0.92.1 r15371"
   sodipodi:docname="clubs.svg">
  <defs
     id="defs4740" />
  <sodipodi:namedview
     id="base"
     pagecolor="#ffffff"
     bordercolor="#666666"
     borderopacity="1.0"
     inkscape:pageopacity="0.0"
     inkscape:pageshadow="2"
     inkscape:zoom="1.979899"
     inkscape:cx="-15.002096"
     inkscape:cy="1098.0558"
     inkscape:document-units="mm"
     inkscape:current-layer="layer1"
     showgrid="false"
     inkscape:window-width="1440"
     inkscape:window-height="853"
     inkscape:window-x="-4"
     inkscape:window-y="-4"
     inkscape:window-maximized="1" />
  <metadata
     id="metadata4743">
    <rdf:RDF>
      <cc:Work
         rdf:about="">
        <dc:format>image/svg+xml</dc:format>
        <dc:type
           rdf:resource="http://purl.org/dc/dcmitype/StillImage" />
        <dc:title />
      </cc:Work>
    </rdf:RDF>
  </metadata>
  <g
     inkscape:label="Layer 1"
     inkscape:groupmode="layer"
     id="layer1">
    <path
       sodipodi:nodetypes="cssssssscscssssssscssssssscscsssccssscscssssssscssssssscscsssssssccc"
       inkscape:connector-curvature="0"
       id="path147-0-8-1-6-1"
       d="m 0.009533,-18.925157 c -0.767856,0.02092 -1.482765,0.17538 -2.137086,0.442729 -0.65432,0.267338 -1.248049,0.647582 -1.773536,1.120305 -0.525499,0.472723 -0.982746,1.03789 -1.364109,1.675052 -0.38138,0.637156 -0.68686,1.346317 -0.908802,2.106966 -0.221953,0.760643 -0.36037,1.572812 -0.407607,2.416018 -0.04723,0.843172 -0.0029,1.7174144 0.139483,2.6021912 0.142777,0.8847889 0.384376,1.7801236 0.732455,2.6655709 0.348071,0.8853622 0.802627,1.7608598 1.371312,2.605963 0.329904,0.493053 0.454106,0.817322 0.373671,0.931776 -0.08044,0.114459 -0.36552,0.01903 -0.854172,-0.326981 -0.382876,-0.322297 -0.809657,-0.577811 -1.263978,-0.76282 -0.454319,-0.184998 -0.936183,-0.299572 -1.429201,-0.339785 -0.493024,-0.04029 -0.997214,-0.0061 -1.496192,0.10573 -0.498979,0.111978 -0.992751,0.301888 -1.464938,0.573639 -0.472193,0.271688 -0.922808,0.625102 -1.33546,1.063975 -0.412659,0.438901 -0.787365,0.963225 -1.107749,1.57677803 -0.320377,0.613554 -0.586437,1.316279 -0.781795,2.11199297 -0.195359,0.795663 -0.320021,1.684314 -0.357616,2.669611 -0.04642,1.214033 0.08138,2.320043 0.344551,3.305885 0.263178,0.985819 0.661724,1.851533 1.156755,2.5849279 0.495027,0.733366 1.086544,1.33447 1.735652,1.791139 0.649115,0.456635 1.355831,0.768868 2.081261,0.924571 0.725425,0.155664 1.469569,0.154776 2.19355,-0.01496 0.723984,-0.169592 1.427782,-0.507863 2.072547,-1.026932 0.644754,-0.519108 1.230466,-1.219048 1.718236,-2.1119519 0.487777,-0.892865 0.745835,-1.282869 0.998859,-2.573808 0.111173,-0.608619 0.14963,-0.949499 0.43892,-0.943527 0.300202,0.0061 0.292637,0.222781 0.33358,0.729601 -0.04614,1.049462 -0.145833,2.081793 -0.291792,3.0997259 -0.14596,1.01795 -0.338183,2.021543 -0.56937,3.013489 -0.231181,0.991952 -0.50133,1.972303 -0.803155,2.943764 -0.301823,0.971473 -0.635312,1.934108 -0.993191,2.890679 H 3.6634066 C 3.3055497,17.969586 2.9720615,17.006951 2.6702424,16.035478 2.3684231,15.064017 2.0982673,14.083666 1.8670749,13.091714 1.6358882,12.099768 1.4436593,11.096175 1.2976999,10.078225 1.1517292,9.0602921 1.0520336,8.0279611 1.0058906,6.9784991 c -0.028533,-0.575014 -0.036818,-0.832963 0.2218441,-0.894251 0.1749706,-0.04138 0.3446371,0.168817 0.4715951,0.543605 0.3320903,1.290957 0.5901481,2.245515 1.0779256,3.13838 0.487766,0.8929039 1.0734788,1.5928439 1.718238,2.1119519 0.644765,0.519069 1.3485804,0.85734 2.072561,1.026932 0.7239691,0.169591 1.4681132,0.170485 2.1935435,0.01496 0.7254303,-0.155703 1.4321471,-0.467936 2.0812671,-0.924571 0.649108,-0.456669 1.240625,-1.057773 1.735663,-1.791139 0.49502,-0.7333949 0.893572,-1.5991089 1.156733,-2.5849279 0.263177,-0.985842 0.334132,-1.893539 0.329702,-3.305885 -0.03757,-0.985297 -0.147397,-1.873948 -0.342733,-2.669611 -0.195369,-0.79571397 -0.461429,-1.49843897 -0.781795,-2.11199297 -0.32039,-0.61355303 -0.695079,-1.13787703 -1.107754,-1.57677803 -0.412652,-0.438873 -0.863273,-0.792287 -1.335449,-1.063975 -0.472216,-0.271751 -0.9659823,-0.461661 -1.4649662,-0.573639 -0.4989724,-0.111977 -1.0031684,-0.145971 -1.4961924,-0.10573 -0.4930299,0.04035 -0.9748763,0.154787 -1.4292015,0.339785 -0.454329,0.185009 -0.8811158,0.440523 -1.2639915,0.76282 -0.2648231,0.337109 -0.5762553,0.511257 -0.8147768,0.369492 -0.1369389,-0.08139 0.00403,-0.481234 0.3342821,-0.974287 0.5686732,-0.8451032 1.02324,-1.7206008 1.3713069,-2.605963 0.3480858,-0.8854473 0.5896849,-1.780782 0.732463,-2.6655594 0.1427722,-0.8847768 0.1867177,-1.7589957 0.1394874,-2.6021967 -0.047231,-0.843194 -0.1856592,-1.655336 -0.4076011,-2.415995 -0.2219534,-0.760649 -0.527435,-1.469788 -0.9087981,-2.106961 -0.3813686,-0.63711 -0.8386163,-1.20234 -1.364109,-1.675034 -0.525487,-0.472747 -1.1192076,-0.853019 -1.7735279,-1.120339 -0.6543145,-0.26735 -1.369223,-0.42177 -2.1370689,-0.442747 0,-4e-5 0,7.4e-5 -0.0064,0 z"
       style="fill:#000000;stroke:#000000;stroke-width:0.22;stroke-linecap:butt;stroke-linejoin:miter;stroke-miterlimit:3.375;stroke-dasharray:none;stroke-opacity:1" />
  </g>
</svg>
