<?xml version="1.0" encoding="UTF-8" standalone="no"?>
<!-- Created with Inkscape (http://www.inkscape.org/) -->

<svg
   xmlns:dc="http://purl.org/dc/elements/1.1/"
   xmlns:cc="http://creativecommons.org/ns#"
   xmlns:rdf="http://www.w3.org/1999/02/22-rdf-syntax-ns#"
   xmlns:svg="http://www.w3.org/2000/svg"
   xmlns="http://www.w3.org/2000/svg"
   xmlns:sodipodi="http://sodipodi.sourceforge.net/DTD/sodipodi-0.dtd"
   xmlns:inkscape="http://www.inkscape.org/namespaces/inkscape"
   width="210mm"
   height="297mm"
   viewBox="0 0 210 297"
   version="1.1"
   id="svg4746"
   inkscape:version="0.92.1 r15371"
   sodipodi:docname="heart.svg">
  <defs
     id="defs4740" />
  <sodipodi:namedview
     id="base"
     pagecolor="#ffffff"
     bordercolor="#666666"
     borderopacity="1.0"
     inkscape:pageopacity="0.0"
     inkscape:pageshadow="2"
     inkscape:zoom="2.8284271"
     inkscape:cx="-123.7069"
     inkscape:cy="1121.5298"
     inkscape:document-units="mm"
     inkscape:current-layer="layer1"
     showgrid="false"
     inkscape:window-width="1440"
     inkscape:window-height="853"
     inkscape:window-x="-4"
     inkscape:window-y="-4"
     inkscape:window-maximized="1" />
  <metadata
     id="metadata4743">
    <rdf:RDF>
      <cc:Work
         rdf:about="">
        <dc:format>image/svg+xml</dc:format>
        <dc:type
           rdf:resource="http://purl.org/dc/dcmitype/StillImage" />
        <dc:title />
      </cc:Work>
    </rdf:RDF>
  </metadata>
  <g
     inkscape:label="Layer 1"
     inkscape:groupmode="layer"
     id="layer1">
    <path
       id="path163-0-2-5-8-7-9-6"
       d="m 0.00113464,18.626282 c -0.93917506,-1.46074 -1.67171844,-2.84614 -2.27526234,-3.84356 -0.712266,-1.17917 -1.56798,-2.57662 -2.532529,-4.11582 -0.9645481,-1.5392075 -2.0379301,-3.220188 -3.1855294,-4.9664182 -0.7677168,-1.16855 -1.4969488,-2.3613 -2.1625269,-3.56123 -0.665575,-1.19995056 -1.267491,-2.40706058 -1.780576,-3.6043203 -0.513085,-1.1972901 -0.937339,-2.38474 -1.247587,-3.54533 -0.310249,-1.16061 -0.506493,-2.2943601 -0.563558,-3.3842701 -0.03273,-0.6225 -0.02265,-1.2452499 0.02882,-1.8589424 0.05147,-0.61369 0.144319,-1.21833 0.277125,-1.80456 0.265613,-1.17249 0.691044,-2.27145 1.264863,-3.22236 0.573818,-0.9509 1.296022,-1.75376 2.155183,-2.33401 0.8591577,-0.580239 1.8552667,-0.937899 2.9768952,-0.998449 1.120959,-0.0605 2.1028581,0.0979 2.8881671,0.550459 0.885421,0.51027 1.465581,0.92125 2.037793,1.69938 0.9537739,1.96622 1.33259334,3.01041 2.11872134,4.95534 0.76128897,-1.89988 1.25432956,-3.17081 2.11879056,-4.95534 0.715288,-0.83474 1.225058,-1.29815 2.037792,-1.69937 0.812737,-0.401229 1.7671977,-0.610969 2.8881507,-0.550469 1.1216249,0.0606 2.1177349,0.41821 2.9768941,0.998449 0.859143,0.58025 1.581351,1.38311 2.155157,2.33401 0.57382,0.95091 0.999241,2.04987 1.264866,3.22236 0.267882,1.22277 0.364878,2.4838125 0.305965,3.6635024 -0.05704,1.08991 -0.25328,2.2236601 -0.563528,3.3842701 -0.310245,1.16059 -0.734501,2.3480399 -1.24759,3.54533 -0.513088,1.19725972 -1.115015,2.40436974 -1.780603,3.6043203 -0.6655803,1.19993 -1.3948212,2.39268 -2.1625452,3.56123 -1.1475969,1.7462302 -2.2209709,3.4272107 -3.1855226,4.9664182 -0.964553,1.5392 -1.820264,2.93665 -2.532536,4.11582 -0.781309,1.30342 -1.30424953,2.21268 -2.27528956,3.84356 z"
       style="fill:#ff0000;fill-opacity:1;stroke:#050000;stroke-width:0.31900001;stroke-linecap:round;stroke-linejoin:round;stroke-miterlimit:3.375;stroke-dasharray:none;stroke-opacity:1"
       inkscape:connector-curvature="0"
       sodipodi:nodetypes="ccscssscsssssscccssssccssscscc" />
  </g>
</svg>
